<svg width="25" height="25" viewBox="0 0 25 25" fill="none" xmlns="http://www.w3.org/2000/svg">
<path d="M9.25 6.71875V0.875H21C21.6042 0.875 22.125 1.09896 22.5625 1.54688C23 1.99479 23.2187 2.51042 23.2187 3.09375V6.71875H9.25ZM3.09375 23.2188C2.51042 23.2188 1.99479 23 1.54688 22.5625C1.09896 22.125 0.875 21.6042 0.875 21V9.21875H6.75V23.2188H3.09375ZM0.875 6.71875V3.09375C0.875 2.51042 1.09896 1.99479 1.54688 1.54688C1.99479 1.09896 2.51042 0.875 3.09375 0.875H6.75V6.71875H0.875ZM12.5 23.75L9.15625 20.4375C9.03125 20.3333 8.94271 20.2135 8.89062 20.0781C8.83854 19.9427 8.8125 19.8021 8.8125 19.6562C8.8125 19.5104 8.83854 19.375 8.89062 19.25C8.94271 19.125 9.03125 19 9.15625 18.875L12.5 15.5312C12.6458 15.3646 12.849 15.2865 13.1094 15.2969C13.3698 15.3073 13.5938 15.3958 13.7812 15.5625C13.9479 15.7292 14.0365 15.9427 14.0469 16.2031C14.0573 16.4635 13.9688 16.6875 13.7812 16.875L11.875 18.7812H15.7187C16.5729 18.7812 17.2969 18.4844 17.8906 17.8906C18.4844 17.2969 18.7812 16.5729 18.7812 15.7188V11.875L16.875 13.75C16.6875 13.9167 16.4687 14 16.2187 14C15.9687 14 15.7604 13.9062 15.5937 13.7188C15.4062 13.5521 15.3125 13.3438 15.3125 13.0938C15.3125 12.8437 15.4062 12.625 15.5937 12.4375L18.9062 9.125C19.0104 9.02083 19.125 8.9375 19.25 8.875C19.375 8.8125 19.5104 8.78125 19.6562 8.78125C19.8021 8.78125 19.9427 8.8125 20.0781 8.875C20.2135 8.9375 20.3437 9.02083 20.4687 9.125L23.8125 12.4688C23.9792 12.6354 24.0573 12.8437 24.0469 13.0938C24.0365 13.3438 23.9479 13.5521 23.7812 13.7188C23.5937 13.9062 23.375 14 23.125 14C22.875 14 22.6667 13.9062 22.5 13.7188L20.5937 11.875V15.7188C20.5937 17.0938 20.1198 18.25 19.1719 19.1875C18.224 20.125 17.0729 20.5938 15.7187 20.5938H11.875L13.7812 22.4688C13.9271 22.6562 14.0052 22.8698 14.0156 23.1094C14.026 23.349 13.9479 23.5625 13.7812 23.75C13.5938 23.9375 13.3698 24.0312 13.1094 24.0312C12.849 24.0312 12.6458 23.9375 12.5 23.75Z" fill="white"/>
</svg>
