<svg width="30" height="30" viewBox="0 0 30 30" fill="none" xmlns="http://www.w3.org/2000/svg">
<path d="M29.2983 14.5499L25.5351 6.19043L21.4559 8.02176L21.7288 8.63221C20.8598 8.91229 19.9047 8.97693 18.9351 8.81893C18.3031 8.71839 17.664 8.71839 17.0392 8.81893C16.5436 8.89793 16.0481 9.04875 15.5813 9.25702C15.3658 9.35038 15.1576 9.46529 14.9493 9.59456L13.1323 10.4851C12.8522 10.4348 12.5721 10.3989 12.2921 10.3845C11.301 10.3415 10.3674 10.0829 9.56301 9.63046L9.95082 9.09902L6.3097 6.4777L0.952148 13.9179L4.57891 16.5321L4.96672 16.0006C5.65616 16.6183 6.19479 17.4226 6.54669 18.3491C6.57542 18.428 6.60415 18.4999 6.64006 18.5789L6.18043 19.2109C5.7208 19.85 5.86443 20.7477 6.5036 21.2074C6.70469 21.351 6.94169 21.4444 7.17868 21.4659C7.17868 21.5377 7.18587 21.6095 7.19305 21.6814C7.25768 22.0548 7.45877 22.3852 7.76758 22.615C8.01176 22.7945 8.30621 22.8879 8.60066 22.8879C8.64375 22.8879 8.67966 22.8879 8.72275 22.8807C8.80175 23.1967 8.98847 23.4911 9.27574 23.6994C9.5271 23.879 9.82155 23.9723 10.1088 23.9723C10.2596 23.9723 10.4105 23.9508 10.5541 23.9005C10.6546 24.1231 10.8126 24.317 11.0137 24.4607C11.2579 24.6402 11.5523 24.7336 11.8468 24.7336C11.9258 24.7336 12.0048 24.7264 12.0766 24.712C12.4572 24.6474 12.7876 24.4463 13.0102 24.1375L13.2975 23.7353L14.6692 24.5253C14.9134 24.6689 15.1863 24.7336 15.4448 24.7336C15.8685 24.7336 16.2779 24.5612 16.5652 24.2309C16.7232 24.0441 16.8381 23.8287 16.8955 23.5917C17.1756 23.6851 17.4701 23.7066 17.7717 23.6563C18.2601 23.5773 18.6838 23.3116 18.971 22.9094C19.1578 22.6437 19.2799 22.3349 19.3086 22.0189C19.3229 21.8753 19.3229 21.7316 19.3014 21.5952C19.8041 21.5665 20.2853 21.3438 20.6156 20.9416C20.8957 20.6041 21.0394 20.1947 21.0394 19.7638C21.1399 19.771 21.2476 19.7638 21.3554 19.7423C21.7504 19.6777 22.0951 19.4622 22.3249 19.139C22.5188 18.8661 22.6409 18.5501 22.6768 18.2126C22.6768 18.1982 22.6768 18.1767 22.684 18.1623C22.7845 18.0331 22.8779 17.8966 22.9641 17.7602C23.4883 16.9271 24.1706 16.2592 24.9534 15.7924L25.2191 16.3741L29.2983 14.5499ZM27.9697 14.04L25.729 15.0455L22.7917 8.5173L25.0324 7.51186L27.9697 14.04ZM6.53951 7.88531L8.53603 9.32165L4.51427 14.8947L4.34909 15.1245L2.35258 13.6881L6.53951 7.88531ZM6.99914 19.7998L7.62395 18.9308L7.65986 18.8805C7.72449 18.7871 7.82504 18.7297 7.93276 18.7081C7.95431 18.7081 7.97585 18.701 7.99022 18.701C7.9974 18.701 7.9974 18.701 8.00458 18.701C8.02613 18.701 8.04049 18.701 8.06203 18.7081C8.06921 18.7081 8.06922 18.7081 8.0764 18.7081C8.09076 18.7081 8.10512 18.7153 8.12667 18.7225C8.12667 18.7225 8.13385 18.7225 8.14103 18.7225C8.1554 18.7297 8.17694 18.7369 8.1913 18.744C8.19849 18.744 8.19849 18.7512 8.20567 18.7512C8.22003 18.7584 8.24158 18.7728 8.25594 18.78C8.29903 18.8159 8.34212 18.8518 8.37085 18.902C8.40675 18.9667 8.4283 19.0385 8.43548 19.1103C8.43548 19.1319 8.43548 19.1462 8.43548 19.1678C8.43548 19.1893 8.4283 19.2109 8.42112 19.2252C8.41394 19.2611 8.39957 19.2899 8.38521 19.3186C8.37803 19.3329 8.36366 19.3473 8.35648 19.3689L7.69577 20.2881C7.63113 20.3815 7.53059 20.4389 7.42286 20.4605C7.30795 20.482 7.20023 20.4533 7.10687 20.3887C6.90578 20.2522 6.86269 19.9865 6.99914 19.7998ZM8.36367 21.8035C8.2703 21.7388 8.21285 21.6383 8.1913 21.5305C8.16976 21.4156 8.19849 21.3079 8.26312 21.2145L9.74255 19.1606C9.80719 19.0672 9.90773 19.0098 10.0155 18.9882C10.037 18.9882 10.0585 18.981 10.0801 18.981C10.0873 18.981 10.0873 18.981 10.0945 18.981C10.116 18.981 10.1304 18.981 10.1519 18.9882C10.1591 18.9882 10.1591 18.9882 10.1591 18.9882C10.1735 18.9882 10.195 18.9954 10.2094 19.0026H10.2165C10.2381 19.0098 10.2525 19.0169 10.2668 19.0241C10.274 19.0241 10.274 19.0313 10.2812 19.0313C10.2955 19.0385 10.3171 19.0529 10.3315 19.06C10.4535 19.1462 10.5182 19.297 10.5038 19.4479C10.5038 19.4694 10.4966 19.4838 10.4966 19.5053C10.4966 19.5125 10.4894 19.5197 10.4894 19.5268C10.4894 19.534 10.4823 19.5484 10.4823 19.5556C10.4823 19.5628 10.4751 19.5699 10.4751 19.5771C10.4679 19.5843 10.4679 19.5987 10.4607 19.6058C10.4535 19.613 10.4464 19.6202 10.4464 19.6346C10.4392 19.6418 10.4392 19.6489 10.432 19.6561L8.95256 21.7101C8.88793 21.8034 8.78739 21.8609 8.67966 21.8824C8.56475 21.8968 8.44985 21.8681 8.36367 21.8035ZM9.86464 22.8879C9.67792 22.7514 9.63483 22.4857 9.77128 22.299L11.2507 20.245C11.2651 20.2235 11.2794 20.2091 11.301 20.1876C11.3082 20.1804 11.3082 20.1804 11.3153 20.1732C11.3297 20.1588 11.3513 20.1445 11.3728 20.1301C11.38 20.1301 11.38 20.1229 11.3872 20.1229C11.4087 20.1157 11.4231 20.1014 11.4446 20.0942C11.4518 20.0942 11.4518 20.0942 11.4518 20.087C11.4733 20.0798 11.4949 20.0727 11.5236 20.0655C11.5308 20.0655 11.538 20.0655 11.5452 20.0583C11.5523 20.0583 11.5523 20.0583 11.5595 20.0583C11.5739 20.0583 11.5882 20.0583 11.5954 20.0583H11.6026C11.6242 20.0583 11.6457 20.0583 11.6672 20.0655C11.6888 20.0655 11.7103 20.0727 11.7247 20.0798C11.7247 20.0798 11.7247 20.0798 11.7319 20.0798C11.7534 20.087 11.7678 20.0942 11.7893 20.1014C11.7893 20.1014 11.7965 20.1014 11.7965 20.1086C11.8109 20.1157 11.8324 20.1301 11.8468 20.1373C11.9258 20.1947 11.9761 20.2737 12.0048 20.3599C12.0192 20.4102 12.0263 20.4677 12.0192 20.5251C12.012 20.5969 11.9832 20.6687 11.9402 20.7334L10.4607 22.7873C10.3171 22.9812 10.0585 23.0243 9.86464 22.8879ZM11.9186 23.7138C11.8037 23.7353 11.696 23.7066 11.6026 23.642C11.5092 23.5773 11.4518 23.4768 11.4303 23.3691C11.4087 23.2542 11.4374 23.1464 11.5021 23.0531L12.1628 22.1338C12.1771 22.1194 12.1843 22.1051 12.1987 22.0907C12.2059 22.0835 12.2131 22.0764 12.2202 22.0692C12.2346 22.0548 12.249 22.0476 12.2633 22.0333C12.2705 22.0261 12.2777 22.0189 12.2849 22.0189C12.2992 22.0117 12.3208 22.0045 12.3351 21.9974C12.3423 21.9902 12.3495 21.9902 12.3567 21.983C12.3854 21.9758 12.407 21.9686 12.4357 21.9614C12.4572 21.9614 12.4788 21.9543 12.4931 21.9543C12.5003 21.9543 12.5003 21.9543 12.5075 21.9543C12.5291 21.9543 12.5434 21.9543 12.565 21.9614C12.5721 21.9614 12.5721 21.9614 12.5793 21.9614C12.5937 21.9614 12.6081 21.9686 12.6296 21.9758H12.6368C12.6511 21.983 12.6727 21.9902 12.687 21.9974C12.6942 21.9974 12.6942 22.0045 12.7014 22.0045C12.7158 22.0117 12.7373 22.0261 12.7517 22.0333C12.8738 22.1194 12.9384 22.2703 12.924 22.4211C12.9169 22.4929 12.8881 22.5647 12.845 22.6293L12.1987 23.5486C12.1269 23.6348 12.0335 23.6994 11.9186 23.7138ZM21.6785 18.1192C21.6642 18.2772 21.6067 18.428 21.5134 18.5573C21.4344 18.665 21.3266 18.7297 21.1974 18.7512C21.0681 18.7728 20.9388 18.744 20.8383 18.665L20.2781 18.2629L19.1793 17.4729C18.9567 17.3077 18.6407 17.3652 18.4755 17.5878C18.3103 17.8104 18.3678 18.1264 18.5904 18.2916L19.6892 19.0816C19.8831 19.218 19.998 19.4263 20.0339 19.6561C20.0627 19.8859 19.998 20.1157 19.8472 20.3025C19.5743 20.64 19.0429 20.6903 18.6694 20.4246L18.5617 20.3456L18.5545 20.3384L17.1972 19.3617C16.9745 19.1965 16.6585 19.2539 16.4934 19.4766C16.3282 19.6992 16.3856 20.0152 16.6083 20.1804L17.9656 21.1571C18.2026 21.3295 18.3319 21.6239 18.3031 21.9255C18.2888 22.0764 18.2385 22.2128 18.1523 22.3277C18.0231 22.5073 17.8291 22.6293 17.6065 22.6653C17.3839 22.7012 17.1613 22.6509 16.9817 22.5144L16.321 22.0404C16.321 22.0404 16.3138 22.0404 16.3138 22.0333L15.0283 21.1068C14.8057 20.9416 14.4897 20.9991 14.3245 21.2217C14.1593 21.4444 14.2168 21.7604 14.4394 21.9255L15.7249 22.852C15.8326 22.931 15.9045 23.0531 15.9188 23.1895C15.9332 23.326 15.8901 23.4624 15.8039 23.5701C15.6531 23.7425 15.3802 23.7784 15.1647 23.6491L13.8505 22.8879C13.8577 22.8735 13.8648 22.852 13.8648 22.8376C13.872 22.8233 13.872 22.8089 13.8792 22.8017C13.8864 22.7873 13.8864 22.7658 13.8936 22.7514C13.8936 22.7371 13.9008 22.7299 13.9008 22.7155C13.9079 22.694 13.9079 22.6724 13.9151 22.6581C13.9151 22.6437 13.9223 22.6365 13.9223 22.6222C13.9295 22.5934 13.9295 22.5575 13.9367 22.5288C13.9869 22.0189 13.7643 21.5234 13.3478 21.2217C13.3119 21.193 13.2759 21.1715 13.24 21.1499C13.2257 21.1427 13.2185 21.1356 13.2041 21.1284C13.1754 21.114 13.1539 21.0996 13.1251 21.0853C13.1108 21.0781 13.0964 21.0709 13.082 21.0637C13.0605 21.0566 13.0318 21.0422 13.003 21.035C12.9887 21.0278 12.9743 21.0206 12.9528 21.0206C12.9456 21.0206 12.9312 21.0135 12.924 21.0135V21.0063C12.9312 20.9919 12.9384 20.9704 12.9456 20.9488C12.9528 20.9345 12.9528 20.9273 12.96 20.9129C12.9671 20.8914 12.9743 20.877 12.9743 20.8555C12.9743 20.8411 12.9815 20.8339 12.9815 20.8196C12.9887 20.798 12.9887 20.7765 12.9959 20.7549C12.9959 20.7477 13.003 20.7334 13.003 20.7262C13.0102 20.6975 13.0102 20.6616 13.0174 20.6328C13.0677 20.1588 12.8738 19.692 12.5075 19.3904C12.486 19.3689 12.4572 19.3473 12.4357 19.3329C12.3998 19.3042 12.3567 19.2827 12.3208 19.2611C12.3064 19.2539 12.2992 19.2468 12.2849 19.2396C12.2561 19.2252 12.2274 19.2109 12.1987 19.1965C12.1843 19.1893 12.17 19.1821 12.1628 19.1821C12.1341 19.1678 12.1053 19.1606 12.0694 19.1462C12.0551 19.139 12.0479 19.139 12.0335 19.1319C11.9976 19.1247 11.9689 19.1103 11.933 19.1031C11.9258 19.1031 11.9114 19.0959 11.9042 19.0959C11.8683 19.0888 11.8324 19.0816 11.7965 19.0744C11.7893 19.0744 11.7822 19.0744 11.775 19.0744C11.7391 19.0672 11.696 19.0672 11.6601 19.0672C11.6529 19.0672 11.6457 19.0672 11.6457 19.0672C11.6026 19.0672 11.5595 19.0672 11.5236 19.0672H11.5164C11.5093 19.0672 11.5021 19.0672 11.4949 19.0672C11.4949 19.06 11.4877 19.0529 11.4877 19.0457C11.4805 19.0169 11.4733 18.9882 11.4662 18.9595C11.4662 18.9451 11.459 18.938 11.4518 18.9236C11.4446 18.8949 11.4303 18.8661 11.4159 18.8374C11.4159 18.8302 11.4087 18.823 11.4087 18.823C11.3943 18.7871 11.38 18.7584 11.3584 18.7225C11.3513 18.7153 11.3513 18.7081 11.3441 18.6938C11.3297 18.6722 11.3153 18.6435 11.301 18.622C11.2938 18.6148 11.2866 18.6004 11.2794 18.5932C11.2579 18.5645 11.2435 18.5358 11.222 18.5142L11.2148 18.507C11.1933 18.4783 11.1645 18.4496 11.143 18.4209C11.1358 18.4137 11.1286 18.4065 11.1214 18.3993C11.0999 18.3778 11.0783 18.3562 11.0568 18.3419C11.0496 18.3347 11.0424 18.3275 11.0281 18.3203C10.9993 18.2988 10.9706 18.2701 10.9347 18.2485C10.6259 18.0259 10.2453 17.9325 9.87182 17.9971C9.82873 18.0043 9.78564 18.0115 9.74973 18.0259C9.74255 18.0259 9.72819 18.0331 9.72101 18.0331C9.6851 18.0402 9.64919 18.0546 9.61328 18.069C9.6061 18.069 9.6061 18.069 9.59892 18.0761C9.56301 18.0905 9.51992 18.1049 9.48401 18.1264C9.47683 18.1336 9.46247 18.1336 9.45528 18.1408C9.42656 18.1551 9.39065 18.1767 9.36192 18.1911C9.35474 18.1911 9.34756 18.1982 9.34756 18.1982C9.31165 18.2198 9.27574 18.2413 9.24701 18.2701C9.23983 18.2772 9.23265 18.2844 9.22547 18.2916C9.21111 18.2988 9.20392 18.3131 9.18956 18.3203C9.16802 18.2916 9.14647 18.2629 9.12492 18.2341C9.11774 18.227 9.11056 18.2198 9.10338 18.2126C9.08902 18.1911 9.06747 18.1695 9.05311 18.1551C9.04593 18.148 9.03874 18.1408 9.02438 18.1264C9.00284 18.1049 8.98847 18.0905 8.96693 18.0761C8.95975 18.069 8.95256 18.0618 8.9382 18.0546C8.90947 18.0331 8.88075 18.0115 8.85202 17.99C8.54321 17.7673 8.16258 17.674 7.78913 17.7386C7.74604 17.7458 7.70295 17.753 7.66704 17.7673C7.65986 17.7673 7.64549 17.7745 7.63831 17.7745C7.59522 17.7889 7.55931 17.7961 7.51622 17.8104H7.50904C7.48032 17.8176 7.45877 17.832 7.43004 17.8391C7.00632 16.7978 6.36715 15.8929 5.5628 15.1963L8.97411 10.4635C9.64919 10.8657 10.4033 11.1458 11.2076 11.2894L10.7767 15.5338C10.7121 16.173 11.1789 16.7403 11.8109 16.805C12.407 16.8624 12.9815 16.6901 13.4411 16.3166C13.9008 15.9432 14.188 15.4046 14.2527 14.8157L14.3676 13.7025C14.9493 13.6809 15.5166 13.5086 16.0194 13.2141L21.341 17.3221C21.3769 17.3508 21.3985 17.3723 21.4128 17.3867L21.42 17.3939C21.4272 17.4011 21.4415 17.4154 21.4487 17.4226L21.4631 17.437C21.4703 17.4442 21.4703 17.4513 21.4775 17.4513L21.4918 17.4657C21.499 17.4729 21.5062 17.4801 21.5134 17.4872L21.5565 17.5519C21.578 17.5806 21.5924 17.6093 21.5995 17.6309L21.6067 17.6452C21.6139 17.6596 21.6139 17.6668 21.6211 17.6812C21.6283 17.6955 21.6354 17.7099 21.6354 17.7242C21.6426 17.7386 21.6426 17.753 21.6498 17.7673L21.6642 17.8104C21.6714 17.8463 21.6785 17.8822 21.6857 17.911V17.9253C21.6857 17.9397 21.6857 17.9541 21.6929 17.9684V17.9756V18.0115C21.6857 18.0402 21.6857 18.0833 21.6785 18.1192ZM22.3321 16.9055L22.3249 16.8912C22.3177 16.884 22.3177 16.884 22.3105 16.8768C22.2962 16.8553 22.2818 16.8409 22.2674 16.8265C22.2674 16.8265 22.2674 16.8265 22.2603 16.8193C22.2531 16.8122 22.2459 16.805 22.2387 16.7906C22.2315 16.7834 22.2315 16.7834 22.2244 16.7763C22.2172 16.7619 22.2028 16.7547 22.1956 16.7404L22.1884 16.7332C22.1741 16.7188 22.1669 16.7116 22.1525 16.6973C22.1382 16.6829 22.131 16.6685 22.1166 16.6614C22.0664 16.6111 22.0161 16.568 21.9443 16.5105L16.0265 11.943L15.7177 12.1728C15.2078 12.5534 14.583 12.733 13.9438 12.6683L13.4411 12.6181L13.2329 14.6936C13.197 15.0167 13.039 15.3112 12.7876 15.5195C12.5362 15.7277 12.2131 15.8211 11.8899 15.7852C11.8037 15.778 11.7462 15.699 11.7534 15.62L12.1125 12.0938L14.6836 10.8298L15.3946 10.4779L15.4376 10.4564C15.6244 10.3415 15.8039 10.2481 15.9835 10.1691C16.3713 9.99673 16.7806 9.86746 17.19 9.80283C17.7071 9.71665 18.2385 9.71665 18.7628 9.80283C19.9262 9.99673 21.0825 9.90337 22.131 9.55147L24.5225 14.8731C23.6822 15.3615 22.9282 16.0509 22.3321 16.9055Z" fill="white"/>
<path d="M26.2821 14.3702C26.3109 14.3702 26.3324 14.3774 26.3611 14.3774C26.5335 14.3774 26.6987 14.32 26.8279 14.2123C26.9788 14.083 27.0793 13.9106 27.1008 13.7095C27.1439 13.3002 26.8423 12.9339 26.4329 12.8908C26.0236 12.8477 25.6573 13.1494 25.6142 13.5587C25.5783 13.9681 25.88 14.3343 26.2821 14.3702ZM26.1169 13.609C26.1313 13.4869 26.2319 13.3935 26.3539 13.3935C26.3611 13.3935 26.3683 13.3935 26.3755 13.3935C26.4401 13.4007 26.4976 13.4294 26.5407 13.4797C26.5838 13.53 26.5981 13.5946 26.5909 13.6593C26.5838 13.7239 26.555 13.7813 26.5048 13.8244C26.4545 13.8675 26.3899 13.8819 26.3252 13.8747C26.2031 13.8603 26.1098 13.7383 26.1169 13.609Z" fill="white"/>
<path d="M4.67951 13.5806C4.7226 13.1713 4.42097 12.805 4.01162 12.7619C3.60226 12.7188 3.23599 13.0205 3.1929 13.4298C3.17136 13.6309 3.22881 13.8248 3.35808 13.9756C3.48735 14.1264 3.65971 14.227 3.8608 14.2485C3.88953 14.2485 3.91107 14.2557 3.9398 14.2557C4.32043 14.2485 4.64361 13.9684 4.67951 13.5806ZM3.75307 13.6596C3.70998 13.6094 3.69562 13.5447 3.7028 13.4801C3.71717 13.358 3.81771 13.2646 3.9398 13.2646C3.94698 13.2646 3.95416 13.2646 3.96134 13.2646C4.09061 13.279 4.19116 13.3939 4.1768 13.5304C4.16243 13.6596 4.04752 13.7602 3.91107 13.7458C3.85362 13.7386 3.79617 13.7099 3.75307 13.6596Z" fill="white"/>
</svg>
