<svg width="15" height="15" viewBox="0 0 15 15" fill="none" xmlns="http://www.w3.org/2000/svg">
<path d="M14.1627 8.42578C14.6054 8.42578 14.9961 8.01563 14.9961 7.48535C15.0221 7.22168 14.9179 6.9873 14.7096 6.78223L13.3345 5.41992V1.875C13.3345 1.35645 12.962 0.9375 12.5011 0.9375H11.6677C11.2067 0.9375 10.8343 1.35645 10.8343 1.875V2.9502L8.06058 0.205078C7.90432 0.0585938 7.69597 0 7.51366 0C7.33135 0 7.123 0.0292969 6.94069 0.234375L0.260439 6.78223C0.0781316 6.9873 0 7.22168 0 7.48535C0 8.0127 0.364614 8.42578 0.833404 8.42578H1.66681V10.4678C1.6642 10.4941 1.6642 10.5205 1.6642 10.5498V13.8281C1.6642 14.4756 2.13039 15 2.70596 15H3.12266C3.15391 15 3.18517 14.9971 3.21642 14.9941C3.25549 14.9971 3.29455 15 3.33362 15H4.16702H4.79207C5.36764 15 5.83383 14.4756 5.83383 13.8281V13.125V11.25C5.83383 10.7314 6.20626 10.3125 6.66723 10.3125H8.33404C8.79502 10.3125 9.16745 10.7314 9.16745 11.25V13.125V13.8281C9.16745 14.4756 9.63363 15 10.2092 15H10.8343H11.6807C11.7171 15 11.7536 15 11.7901 14.9971C11.8187 15 11.8474 15 11.876 15H12.2927C12.8683 15 13.3345 14.4756 13.3345 13.8281V13.3535C13.3423 13.2773 13.3475 13.1982 13.3475 13.1162L13.3293 8.42285H14.1627V8.42578Z" fill="#ff6432"/>
</svg>
