<svg width="122" height="110" viewBox="0 0 122 110" fill="none" xmlns="http://www.w3.org/2000/svg">
<path d="M9.4375 109.062C6.9375 109.062 4.82812 108.177 3.10937 106.406C1.39062 104.635 0.53125 102.5 0.53125 100V9.0625C0.53125 6.5625 1.39062 4.42708 3.10937 2.65625C4.82812 0.885416 6.9375 0 9.4375 0H50.5312C52.9271 0 55.0104 0.885416 56.7812 2.65625C58.5521 4.42708 59.4375 6.5625 59.4375 9.0625V25.1562H112.562C115.062 25.1562 117.198 26.0156 118.969 27.7344C120.74 29.4531 121.625 31.5625 121.625 34.0625V100.156C121.625 102.552 120.74 104.635 118.969 106.406C117.198 108.177 115.062 109.062 112.562 109.062H9.4375ZM9.4375 100H25.5312V84.0625H9.4375V100ZM9.4375 75H25.5312V59.0625H9.4375V75ZM9.4375 50H25.5312V34.0625H9.4375V50ZM9.4375 25H25.5312V9.0625H9.4375V25ZM34.4375 100H50.5312V84.0625H34.4375V100ZM34.4375 75H50.5312V59.0625H34.4375V75ZM34.4375 50H50.5312V34.0625H34.4375V50ZM34.4375 25H50.5312V9.0625H34.4375V25ZM59.4375 100H112.562V34.0625H59.4375V50H71.625V59.0625H59.4375V75H71.625V84.0625H59.4375V100ZM87.5625 59.0625V50H96.625V59.0625H87.5625ZM87.5625 84.0625V75H96.625V84.0625H87.5625Z" fill="#F2F6F7"/>
</svg>
