<svg width="120" height="116" viewBox="0 0 120 116" fill="none" xmlns="http://www.w3.org/2000/svg">
<path d="M57.84 51.2973C57.84 52.4019 56.9446 53.2973 55.84 53.2973H45.2C44.0954 53.2973 43.2 52.4019 43.2 51.2973V50.2328C43.2 49.1283 44.0954 48.2328 45.2 48.2328H51.04C52.1446 48.2328 53.04 47.3374 53.04 46.2328V40.5863C53.04 39.4817 53.9354 38.5863 55.04 38.5863H55.84C56.9446 38.5863 57.84 39.4817 57.84 40.5863V51.2973Z" fill="#F2F6F7"/>
<path d="M14.88 48.2328V53.2973H27.52C28.6246 53.2973 29.52 52.4019 29.52 51.2973V50.2328C29.52 49.1283 28.6246 48.2328 27.52 48.2328H14.88Z" fill="#F2F6F7"/>
<path d="M57.84 14.9522H53.04V27.1809C53.04 28.2854 53.9354 29.1809 55.04 29.1809H55.84C56.9446 29.1809 57.84 28.2854 57.84 27.1809V14.9522Z" fill="#F2F6F7"/>
<path d="M115.08 14.9522H110.16V81.7547V86.578V97.9127L100.8 106.353H90.72H86.64H14.88V111.177L104.16 110.694L115.08 101.289V14.9522Z" fill="#F2F6F7"/>
<path d="M90.72 86.578H110.16V81.7547H86.64V106.353H90.72V86.578Z" fill="#F2F6F7"/>
<path d="M0 116H14.88V111.177V106.353V53.2973V48.2328V14.9522H0V116Z" fill="#F2F6F7"/>
<path d="M0 0V14.9522H14.88V0L0 0Z" fill="#F2F6F7"/>
<path d="M120 14.9522V0H14.88V14.9522H53.04H57.84H110.16H115.08H120Z" fill="#F2F6F7"/>
</svg>
