<svg width="124" height="124" viewBox="0 0 124 124" fill="none" xmlns="http://www.w3.org/2000/svg">
<path d="M62 123.719C53.4583 123.719 45.4375 122.104 37.9375 118.875C30.4375 115.646 23.901 111.245 18.3281 105.672C12.7552 100.099 8.35417 93.5625 5.125 86.0625C1.89583 78.5625 0.28125 70.5417 0.28125 62C0.28125 53.4583 1.89583 45.4375 5.125 37.9375C8.35417 30.4375 12.7552 23.901 18.3281 18.3281C23.901 12.7552 30.4375 8.35417 37.9375 5.125C45.4375 1.89583 53.4583 0.28125 62 0.28125C70.5417 0.28125 78.5625 1.89583 86.0625 5.125C93.5625 8.35417 100.099 12.7552 105.672 18.3281C111.245 23.901 115.646 30.4375 118.875 37.9375C122.104 45.4375 123.719 53.4583 123.719 62C123.719 70.5417 122.104 78.5625 118.875 86.0625C115.646 93.5625 111.245 100.099 105.672 105.672C100.099 111.245 93.5625 115.646 86.0625 118.875C78.5625 122.104 70.5417 123.719 62 123.719ZM55.4375 114.656V101.844C51.7917 101.844 48.7448 100.516 46.2969 97.8594C43.849 95.2031 42.625 92.0521 42.625 88.4062V81.5312L10.75 49.6562C10.2292 51.7396 9.86458 53.7969 9.65625 55.8281C9.44792 57.8594 9.34375 59.9167 9.34375 62C9.34375 75.4375 13.6927 87.1823 22.3906 97.2344C31.0885 107.286 42.1042 113.094 55.4375 114.656ZM100.906 97.7812C103.198 95.3854 105.203 92.7812 106.922 89.9688C108.641 87.1562 110.099 84.2135 111.297 81.1406C112.495 78.0677 113.38 74.9427 113.953 71.7656C114.526 68.5885 114.813 65.3333 114.813 62C114.813 50.9583 111.818 40.9844 105.828 32.0781C99.8385 23.1719 91.7917 16.6354 81.6875 12.4687V15.2813C81.6875 18.9271 80.4635 22.0781 78.0156 24.7344C75.5677 27.3906 72.5208 28.7188 68.875 28.7188H55.4375V42.1562C55.4375 43.9271 54.7083 45.4115 53.25 46.6094C51.7917 47.8073 50.1771 48.4062 48.4062 48.4062H35.5938V62H75.5938C77.3646 62 78.8229 62.6771 79.9688 64.0312C81.1146 65.3854 81.6875 66.9479 81.6875 68.7188V88.4062H88.4062C91.3229 88.4062 93.9271 89.2656 96.2188 90.9844C98.5104 92.7031 100.073 94.9688 100.906 97.7812Z" fill="#F2F6F7"/>
</svg>
