<svg width="62" height="120" viewBox="0 0 62 120" fill="none" xmlns="http://www.w3.org/2000/svg">
<path d="M19.9063 119.344C18.9688 120.073 18.0573 120.099 17.1719 119.422C16.2865 118.745 16 117.885 16.3125 116.844L20.6875 102.937L9.4375 94.6562C8.5 93.9271 8.21354 93.0677 8.57813 92.0781C8.94271 91.0885 9.69791 90.5938 10.8437 90.5938H24.5938L28.5 75.4375L6.78125 62.7812C4.69792 61.6354 3.05729 60.0729 1.85937 58.0937C0.661458 56.1146 0.0625 53.9271 0.0625 51.5313V9.03125C0.0625 6.63542 0.947915 4.55208 2.71875 2.78125C4.48958 1.01042 6.625 0.125 9.125 0.125H53.0312C55.4271 0.125 57.5104 1.01042 59.2812 2.78125C61.0521 4.55208 61.9375 6.63542 61.9375 9.03125V51.5313C61.9375 53.9271 61.3385 56.1146 60.1406 58.0937C58.9427 60.0729 57.3021 61.6354 55.2188 62.7812L33.5 75.4375L37.4062 90.5938H51.1562C52.1979 90.5938 52.901 91.0885 53.2656 92.0781C53.6302 93.0677 53.3438 93.9271 52.4062 94.6562L41.3125 102.937L45.5312 116.844C45.8437 117.885 45.5833 118.693 44.75 119.266C43.9167 119.839 43.0312 119.812 42.0937 119.187L31 111.062L19.9063 119.344ZM9.125 9.03125V51.5313C9.125 52.2604 9.38542 52.9635 9.90625 53.6406C10.4271 54.3177 11.1563 54.9688 12.0938 55.5938L27.25 63.875V9.03125H9.125ZM53.0312 9.03125H36.1562V63.875L49.9062 55.5938C50.9479 54.9688 51.7292 54.3177 52.25 53.6406C52.7708 52.9635 53.0312 52.2604 53.0312 51.5313V9.03125Z" fill="#F2F6F7"/>
</svg>
