<svg width="26" height="26" viewBox="0 0 26 26" fill="none" xmlns="http://www.w3.org/2000/svg">
<path d="M12.5 20.0312C10.6458 19.9271 9.08854 19.2031 7.82813 17.8594C6.56771 16.5156 5.9375 14.8958 5.9375 13C5.9375 11.0208 6.61979 9.34375 7.98438 7.96875C9.34896 6.59375 11.0208 5.90625 13 5.90625C14.875 5.90625 16.4844 6.54167 17.8281 7.8125C19.1719 9.08333 19.9167 10.6458 20.0625 12.5L18.125 11.9062C17.875 10.7188 17.276 9.72396 16.3281 8.92188C15.3802 8.11979 14.2708 7.71875 13 7.71875C11.5417 7.71875 10.3021 8.23438 9.28125 9.26562C8.26042 10.2969 7.75 11.5417 7.75 13C7.75 14.25 8.14583 15.3594 8.9375 16.3281C9.72917 17.2969 10.7188 17.8854 11.9062 18.0938L12.5 20.0312ZM14 25C13.8542 25.0208 13.6927 25.0365 13.5156 25.0469C13.3385 25.0573 13.1667 25.0625 13 25.0625C11.3542 25.0625 9.79167 24.75 8.3125 24.125C6.83333 23.5 5.54688 22.6406 4.45312 21.5469C3.35938 20.4531 2.5 19.1719 1.875 17.7031C1.25 16.2344 0.9375 14.6667 0.9375 13C0.9375 11.3333 1.25 9.76562 1.875 8.29688C2.5 6.82813 3.35938 5.54688 4.45312 4.45312C5.54688 3.35937 6.82813 2.49479 8.29688 1.85938C9.76562 1.22396 11.3333 0.90625 13 0.90625C14.6458 0.90625 16.2083 1.22396 17.6875 1.85938C19.1667 2.49479 20.4531 3.35937 21.5469 4.45312C22.6406 5.54688 23.5052 6.82813 24.1406 8.29688C24.776 9.76562 25.0937 11.3333 25.0937 13C25.0937 13.1667 25.0833 13.3333 25.0625 13.5C25.0417 13.6667 25.0312 13.8333 25.0312 14L23.2812 13.4375V13C23.2812 10.1458 22.2812 7.71875 20.2812 5.71875C18.2812 3.71875 15.8542 2.71875 13 2.71875C10.1458 2.71875 7.72396 3.71875 5.73438 5.71875C3.74479 7.71875 2.75 10.1458 2.75 13C2.75 15.8542 3.75 18.276 5.75 20.2656C7.75 22.2552 10.1667 23.25 13 23.25H13.4375L14 25ZM23.1875 25.0625L17.5 19.375L16.1562 23.4688L13 13L23.4688 16.1562L19.375 17.5L25.0625 23.1875L23.1875 25.0625Z" fill="white"/>
</svg>
