<svg width="27" height="28" viewBox="0 0 27 28" fill="none" xmlns="http://www.w3.org/2000/svg">
<path d="M1.87912 0.875C0.839732 0.875 0 1.71289 0 2.75V8.375C0 9.41211 0.839732 10.25 1.87912 10.25C2.91851 10.25 3.75824 9.41211 3.75824 8.375V4.625H7.51648C8.55587 4.625 9.3956 3.78711 9.3956 2.75C9.3956 1.71289 8.55587 0.875 7.51648 0.875H1.87912ZM3.75824 19.625C3.75824 18.5879 2.91851 17.75 1.87912 17.75C0.839732 17.75 0 18.5879 0 19.625V25.25C0 26.2871 0.839732 27.125 1.87912 27.125H7.51648C8.55587 27.125 9.3956 26.2871 9.3956 25.25C9.3956 24.2129 8.55587 23.375 7.51648 23.375H3.75824V19.625ZM18.7912 0.875C17.7518 0.875 16.9121 1.71289 16.9121 2.75C16.9121 3.78711 17.7518 4.625 18.7912 4.625H22.5494V8.375C22.5494 9.41211 23.3892 10.25 24.4286 10.25C25.468 10.25 26.3077 9.41211 26.3077 8.375V2.75C26.3077 1.71289 25.468 0.875 24.4286 0.875H18.7912ZM26.3077 19.625C26.3077 18.5879 25.468 17.75 24.4286 17.75C23.3892 17.75 22.5494 18.5879 22.5494 19.625V23.375H18.7912C17.7518 23.375 16.9121 24.2129 16.9121 25.25C16.9121 26.2871 17.7518 27.125 18.7912 27.125H24.4286C25.468 27.125 26.3077 26.2871 26.3077 25.25V19.625Z" fill="white"/>
</svg>
